<?xml version="1.0" encoding="UTF-8" standalone="no"?>
<!-- Created with Inkscape (http://www.inkscape.org/) -->

<svg
   xmlns:dc="http://purl.org/dc/elements/1.1/"
   xmlns:cc="http://creativecommons.org/ns#"
   xmlns:rdf="http://www.w3.org/1999/02/22-rdf-syntax-ns#"
   xmlns:svg="http://www.w3.org/2000/svg"
   xmlns="http://www.w3.org/2000/svg"
   xmlns:sodipodi="http://sodipodi.sourceforge.net/DTD/sodipodi-0.dtd"
   xmlns:inkscape="http://www.inkscape.org/namespaces/inkscape"
   width="256mm"
   height="256mm"
   viewBox="0 0 256 256"
   version="1.1"
   id="svg8"
   sodipodi:docname="Cypher.svg"
   inkscape:version="0.92.1 r"
   inkscape:export-filename="/home/sephecure/Förråd/cypher/src/main/java/com/github/cypher/icon.png"
   inkscape:export-xdpi="50.799999"
   inkscape:export-ydpi="50.799999">
  <defs
     id="defs2" />
  <sodipodi:namedview
     id="base"
     pagecolor="#ffffff"
     bordercolor="#666666"
     borderopacity="1.0"
     inkscape:pageopacity="0.0"
     inkscape:pageshadow="2"
     inkscape:zoom="0.24748737"
     inkscape:cx="301.67599"
     inkscape:cy="-54.749508"
     inkscape:document-units="mm"
     inkscape:current-layer="layer1"
     showgrid="false"
     inkscape:window-width="1544"
     inkscape:window-height="874"
     inkscape:window-x="56"
     inkscape:window-y="26"
     inkscape:window-maximized="1" />
  <metadata
     id="metadata5">
    <rdf:RDF>
      <cc:Work
         rdf:about="">
        <dc:format>image/svg+xml</dc:format>
        <dc:type
           rdf:resource="http://purl.org/dc/dcmitype/StillImage" />
        <dc:title></dc:title>
      </cc:Work>
    </rdf:RDF>
  </metadata>
  <g
     inkscape:label="Layer 1"
     inkscape:groupmode="layer"
     id="layer1"
     transform="translate(0,-41)">
    <rect
       style="fill:#000000;stroke-width:0.8198657"
       id="rect26"
       width="256"
       height="256"
       x="-7.1054274e-15"
       y="41.000008"
       ry="64.144684" />
    <path
       style="fill:#ffffff;stroke-width:0.82523763"
       d="m 216.77422,285.46159 c 0.32516,-2.03354 0.75428,-2.84142 1.16028,-2.1845 0.3693,0.5975 0.89656,-1.5177 1.23532,-4.95553 0.36739,-3.72832 0.85096,-5.58076 1.27791,-4.89535 0.48087,0.77191 0.84903,0.29817 1.2274,-1.5793 0.29723,-1.47515 0.85049,-2.68204 1.22942,-2.68204 0.37893,0 1.134,-1.48543 1.67796,-3.30094 0.54392,-1.81555 1.48723,-3.30098 2.09619,-3.30098 0.60899,0 1.11292,-0.64987 1.11988,-1.44416 0.009,-1.10531 0.17622,-1.18604 0.71,-0.34406 0.47846,0.75479 0.99915,-0.0983 1.65873,-2.7178 0.52876,-2.09985 1.31613,-3.59866 1.74977,-3.33066 0.4336,0.2679 1.02761,-1.00892 1.32002,-2.83757 0.29225,-1.82863 0.84944,-3.12839 1.23784,-2.88831 0.38842,0.24015 0.94547,-1.05969 1.23787,-2.88834 0.29225,-1.82864 0.81877,-3.14735 1.16967,-2.93046 0.59638,0.36856 2.45677,-8.32094 2.45677,-11.47502 0,-0.78389 0.31536,-1.23039 0.70078,-0.99218 0.93418,0.57736 1.80812,-30.63252 0.95867,-34.23641 -0.3659,-1.55228 -0.71957,-2.45098 -0.78594,-1.99711 -0.17653,1.20653 -2.49688,-5.50985 -2.51154,-7.26953 -0.007,-0.82109 -0.34307,-1.28852 -0.74717,-1.03879 -0.40413,0.24983 -0.97992,-0.85271 -1.27957,-2.44992 -0.29973,-1.59725 -0.8974,-2.68615 -1.32832,-2.41979 -0.43096,0.26637 -0.78355,-0.43952 -0.78355,-1.5686 0,-2.42036 -2.2126,-4.92402 -3.80994,-4.31107 -0.61675,0.23673 -3.07552,0.66448 -5.46394,0.9506 -2.38842,0.28602 -5.27093,0.73044 -6.40563,0.98731 -1.1347,0.25699 -3.91987,0.57084 -6.1893,0.69771 -2.26939,0.12697 -4.24597,0.25295 -4.39238,0.2804 -0.14659,0.0281 0.49309,1.01489 1.42112,2.19469 1.48403,1.88663 1.54126,2.29116 0.47506,3.35737 -0.81144,0.81144 -1.82709,1.00238 -3.07161,0.57751 -1.02262,-0.34914 -2.19326,-0.65306 -2.6014,-0.67536 -0.40812,-0.0218 -1.0319,-0.78327 -1.38615,-1.69103 -0.35425,-0.90775 -0.68335,-1.27914 -0.73135,-0.82526 -0.14628,1.38462 -2.44309,-3.18635 -2.48787,-4.95143 -0.0346,-1.37048 -0.17747,-1.44048 -0.84182,-0.41261 -0.66102,1.02285 -0.80215,0.94721 -0.8126,-0.4355 -0.007,-0.92039 -0.7345,-2.29148 -1.61677,-3.0469 -0.88227,-0.75539 -1.85886,-2.73145 -2.17023,-4.39123 -0.33237,-1.77146 -0.81471,-2.61553 -1.16803,-2.04382 -0.34232,0.55384 -0.84176,-0.52617 -1.15808,-2.50425 -0.30597,-1.91298 -0.76049,-3.27384 -1.0102,-3.02414 -0.24984,0.24984 -1.1658,-0.25762 -2.03573,-1.12767 -2.0834,-2.08339 -6.08796,-2.01109 -9.14418,0.165 -2.18561,1.55632 -2.43136,2.16384 -2.25316,5.57036 0.13504,2.57933 -0.11543,3.75638 -0.76884,3.61721 -0.68924,-0.14691 -0.94066,1.87762 -0.8712,7.01453 0.0688,5.0895 0.28351,6.49006 0.7276,4.7451 0.62685,-2.46358 0.63044,-2.46491 0.72759,-0.27385 0.13725,3.09362 0.9171,4.81263 2.18344,4.81263 0.59619,0 1.3267,1.1049 1.62328,2.45535 0.29662,1.35044 0.79033,2.40557 1.09712,2.34467 1.04311,-0.20678 3.85516,1.28232 4.86409,2.57597 0.55292,0.70895 1.01711,1.01049 1.03155,0.67008 0.0471,-1.11157 3.14937,2.47216 3.73371,4.31322 0.31318,0.98676 0.7654,1.59814 1.00494,1.3586 0.23955,-0.23953 0.98767,0.1166 1.66256,0.79155 0.98689,0.98685 1.46852,1.02665 2.46071,0.20304 2.05524,-1.70566 3.59338,-1.48349 4.39899,0.63541 l 0.76478,2.01157 1.71601,-1.71601 c 2.1757,-2.1757 5.23654,-1.84537 5.58499,0.60271 0.17123,1.20351 -0.44486,2.2644 -1.8497,3.18492 -2.19353,1.43723 -2.18018,3.13791 0.0187,2.29437 0.82796,-0.31774 1.41759,0.11633 1.71788,1.2646 0.2514,0.96162 0.78635,1.54497 1.18862,1.29636 0.40229,-0.24858 0.73141,-0.0586 0.73141,0.42186 0,0.48067 0.38442,0.87396 0.85427,0.87396 0.46984,0 1.82391,0.63534 3.00904,1.41185 2.59302,1.69901 5.21431,2.20675 5.21431,1.01 0,-0.47784 0.37135,-0.63928 0.82523,-0.35875 0.45388,0.2804 0.82526,1.21915 0.82526,2.0859 0,1.06174 0.40386,1.42089 1.23785,1.10085 0.6808,-0.26137 1.23787,-1.01421 1.23787,-1.67328 0,-0.65902 -0.3605,-0.97547 -0.80107,-0.70319 -0.44058,0.27229 -1.04669,-0.48378 -1.347,-1.68018 -0.38336,-1.52746 -0.74231,-1.85751 -1.20533,-1.10833 -0.4589,0.74251 -0.83527,0.36617 -1.23787,-1.23788 -0.42305,-1.6855 -0.76747,-2.00655 -1.28192,-1.19479 -0.54326,0.85722 -0.70633,0.78113 -0.71609,-0.33421 -0.007,-0.79429 -0.74591,-2.17744 -1.64213,-3.07365 -0.89621,-0.89622 -1.86423,-2.56477 -2.15112,-3.70788 -0.28694,-1.14309 -0.81375,-1.89782 -1.17081,-1.67715 -0.7442,0.45996 -1.96261,-3.67651 -1.28307,-4.35603 0.24641,-0.24641 1.19272,0.22644 2.10328,1.05049 0.91053,0.82402 1.6555,1.22644 1.6555,0.89423 0,-0.33222 1.14266,0.53865 2.53921,1.93519 1.39654,1.39657 3.06765,2.53922 3.71357,2.53922 0.64591,0 1.17436,0.57895 1.17436,1.28655 0,0.70762 0.30379,1.09886 0.67492,0.86943 0.37122,-0.22925 1.18158,0.2857 1.80079,1.14495 0.61925,0.85913 1.43222,1.37274 1.80665,1.14135 0.37441,-0.23143 0.90353,0.16 1.17581,0.86945 0.2723,0.70957 1.00532,1.29014 1.62894,1.29014 0.6236,0 1.36622,0.92586 1.65019,2.0574 0.28415,1.13157 0.85074,1.85075 1.25944,1.59818 0.40865,-0.25264 0.96499,0.11909 1.23627,0.82619 0.27136,0.70699 0.77882,1.10897 1.1278,0.89326 0.73534,-0.45445 1.68735,6.43616 1.30968,9.47925 -0.14098,1.13469 -0.30347,2.5273 -0.36137,3.09465 -0.058,0.56734 -0.56951,0.9387 -1.13684,0.82523 -0.6269,-0.12538 -1.13745,0.90545 -1.30151,2.62779 -0.19743,2.07449 -0.47065,2.51686 -1.01888,1.65046 -0.59542,-0.94091 -0.75695,-0.84519 -0.78787,0.46688 -0.0434,1.84168 -1.96169,4.76416 -2.66531,4.06051 -0.24891,-0.24889 -0.72776,1.52078 -1.06399,3.93273 -0.4302,3.08573 -0.77991,3.91261 -1.18,2.7902 -0.38392,-1.07697 -0.91565,0.43354 -1.6369,4.65001 -1.08984,6.37132 -0.85729,10.0359 0.43458,6.84796 0.36785,-0.90775 1.15381,-2.1412 1.74658,-2.74099 0.89034,-0.90091 1.06761,-0.75747 1.01969,0.82527 -0.0605,1.99539 -1.41883,5.83597 -1.55327,4.39144 -0.0421,-0.45388 -0.68645,0.41202 -1.43159,1.92425 -1.22184,2.47957 -1.43855,2.60108 -2.20779,1.23787 -0.79201,-1.40369 -0.88548,-1.37555 -1.30839,0.39383 -0.72644,3.03919 -2.09641,2.11337 -2.2091,-1.49285 -0.62792,-20.09387 -0.53778,-19.01205 -1.13469,-13.61644 l -0.5478,4.95142 -0.15127,-5.77665 c -0.20586,-7.8556 -1.5706,-9.40755 -4.89859,-5.57036 -0.8857,1.02123 -1.87184,1.85678 -2.19145,1.85678 -0.3196,0 -1.13812,0.55706 -1.81894,1.23787 -0.68082,0.68082 -1.79792,1.23785 -2.48244,1.23785 -1.03812,0 -1.15107,-0.87312 -0.68102,-5.26265 0.57007,-5.3232 -0.32448,-7.55373 -2.25516,-5.62306 -0.46962,0.46963 -1.33666,0.66862 -1.9267,0.4422 -0.59003,-0.22644 -1.84452,0.001 -2.78777,0.50615 -1.39027,0.74405 -1.71496,0.67798 -1.71496,-0.34908 0,-1.98905 -3.91619,-1.95587 -5.46839,0.0464 -0.75756,0.97715 -1.36864,1.01947 -3.30099,0.22862 -3.35836,-1.37426 -4.36106,-1.50311 -4.9008,-0.62978 -0.26012,0.42083 -0.79185,0.56806 -1.18169,0.32711 -0.38986,-0.24079 -0.95623,0.34153 -1.25865,1.29433 -0.43242,1.36241 -0.98884,1.62223 -2.60532,1.21651 -3.9247,-0.98504 -5.21733,0.096 -5.2034,4.35151 0.009,2.4454 0.27042,3.45764 0.71449,2.75683 0.50564,-0.79775 0.82705,-0.45292 1.14933,1.23316 0.57265,2.9956 0.16563,3.58783 -2.4657,3.58783 -2.06917,0 -2.09276,0.0546 -0.69096,1.6037 0.79823,0.88206 2.52691,1.83994 3.84148,2.12866 3.34841,0.73545 2.97687,1.89614 -0.7045,2.2008 -2.0868,0.17281 -3.09465,0.65927 -3.09465,1.49399 0,1.30248 0.0559,1.30923 14.62672,1.77146 5.17559,0.16406 7.32175,0.54675 7.63412,1.36083 0.23891,0.62282 0.6805,3.77883 0.98111,7.01336 0.33708,3.6266 0.76007,5.27238 1.10351,4.29331 0.48266,-1.37601 0.63515,-1.27585 1.14395,0.7514 0.32289,1.28644 1.12575,2.8777 1.78417,3.53612 0.65843,0.65842 1.2022,2.00615 1.20841,2.99496 0.0187,2.81672 0.93158,5.53612 1.70075,5.06073 0.38457,-0.23768 0.9513,1.46836 1.25944,3.79118 0.36778,2.77242 0.79977,3.84541 1.25744,3.1234 0.52248,-0.82421 0.70042,-0.84132 0.70986,-0.0684 0.007,0.56734 0.54315,1.03155 1.19155,1.03155 0.64842,0 1.76251,0.58357 2.47572,1.29681 0.71326,0.71323 1.29679,0.93178 1.29679,0.48563 0,-1.13479 2.72624,-0.61828 3.12998,0.59299 0.58523,1.75557 3.46764,-2.47047 4.01355,-5.88441 z m -38.08991,-33.62671 c -0.2804,-0.45388 0.0908,-0.82523 0.82523,-0.82523 0.73438,0 1.10574,0.37135 0.82526,0.82523 -0.28041,0.45387 -0.65189,0.82522 -0.82526,0.82522 -0.17343,0 -0.54472,-0.37135 -0.82523,-0.82522 z m 21.67939,0.36074 c -0.74468,-0.74466 2.96779,-4.19968 4.10929,-3.8243 1.30433,0.42889 1.35396,1.81307 0.065,1.81307 -0.5316,0 -1.58296,0.55786 -2.33636,1.23964 -0.7534,0.68183 -1.58047,1.02904 -1.8379,0.77159 z m 28.31264,-1.66737 c 0.0396,-0.96136 0.23517,-1.1569 0.49857,-0.4986 0.23828,0.59574 0.20897,1.3075 -0.0652,1.58171 -0.27416,0.27417 -0.46928,-0.21334 -0.43345,-1.08311 z m -22.28142,-3.30097 c 0.0396,-0.96134 0.23517,-1.15689 0.49857,-0.49857 0.23829,0.59573 0.20896,1.30748 -0.0652,1.58172 -0.27417,0.27416 -0.46929,-0.21335 -0.43346,-1.08315 z m -26.8276,-1.90081 c -0.24858,-0.40244 0.10068,-1.19062 0.77655,-1.75151 0.98108,-0.81421 1.50385,-0.79148 2.59346,0.11293 0.75058,0.62289 1.49327,1.03974 1.65047,0.92628 0.15721,-0.11358 1.49269,-0.1625 2.9678,-0.10857 l 2.68206,0.0976 -2.47574,0.62995 c -3.54156,0.90117 -7.66633,0.94827 -8.1946,0.0936 z m 57.42654,-24.85064 c 0,-1.13469 0.18713,-1.5989 0.41623,-1.03154 0.22893,0.56734 0.22893,1.49575 0,2.0631 -0.22895,0.56733 -0.41623,0.10319 -0.41623,-1.03156 z m 2.47571,-5.77665 c 0,-1.13469 0.18744,-1.59889 0.41623,-1.03154 0.22893,0.56734 0.22893,1.49576 0,2.06309 -0.22894,0.56735 -0.41623,0.1032 -0.41623,-1.03155 z m -61.19788,71.60258 c 0,-0.40127 0.34462,-0.51657 0.76581,-0.25638 1.25558,0.776 1.73579,-2.13777 1.59503,-9.67803 -0.12631,-6.76536 -0.80392,-8.34753 -2.55452,-5.96477 -0.33346,0.4539 -0.61199,-0.0412 -0.61892,-1.10029 -0.007,-1.17911 -0.41252,-1.78573 -1.04418,-1.56488 -0.56738,0.19838 -0.92945,1.06487 -0.8047,1.92556 0.21053,1.45252 0.16313,1.46118 -0.65993,0.12067 -0.94255,-1.53496 -3.28051,-1.99077 -3.28051,-0.63956 0,0.98414 -5.14827,0.0889 -5.87979,-1.0225 -0.31065,-0.47182 -0.74367,-0.41486 -1.08859,0.14315 -0.31502,0.50978 -0.97585,0.67771 -1.46852,0.37324 -0.51427,-0.31783 -0.65997,-0.17217 -0.34214,0.34214 0.67627,1.09422 -1.09551,2.3485 -1.835,1.29901 -0.28975,-0.41109 -2.08699,-1.43538 -3.99408,-2.27618 -1.90707,-0.84083 -3.58251,-2.1263 -3.72315,-2.85662 -0.18684,-0.97053 -0.77348,-0.60069 -2.17998,1.37452 -2.03305,2.8552 -1.88677,5.42913 0.2617,4.60468 0.91732,-0.352 1.27635,0.052 1.29531,1.45808 0.0353,2.62091 1.56622,4.44284 4.30627,5.12505 1.24817,0.31066 2.26939,0.92932 2.26939,1.37456 0,0.44524 0.9284,0.80951 2.06309,0.80951 1.25138,0 2.0631,0.47043 2.0631,1.1957 0,0.72573 1.78392,1.75803 4.53881,2.62642 2.49633,0.78689 4.53988,1.82708 4.54122,2.31156 0.001,0.48448 1.3011,0.9087 2.88832,0.94275 1.58726,0.034 2.88593,-0.26635 2.88593,-0.66762 z m -5.71153,-15.9678 c 0.0397,-0.96136 0.23518,-1.15691 0.49858,-0.4986 0.2383,0.59572 0.20897,1.30748 -0.0652,1.58171 -0.27416,0.27415 -0.46925,-0.21334 -0.43345,-1.08311 z m -19.87085,6.28393 c 0,-1.1171 -0.39326,-1.47368 -1.25891,-1.14146 -0.9708,0.37254 -1.04211,0.74432 -0.31158,1.62456 1.27191,1.53252 1.57049,1.44067 1.57049,-0.4831 z m -1.45702,-14.56256 c 0.89185,-1.95743 0.7456,-2.37044 -1.57314,-4.44224 -1.40604,-1.25631 -2.95925,-2.97751 -3.45161,-3.82488 -0.49489,-0.8518 -0.90642,-1.06676 -0.92027,-0.48073 -0.0131,0.58301 -1.12665,-0.0667 -2.473,-1.44415 -1.34634,-1.37731 -2.80083,-2.50417 -3.23219,-2.50417 -0.43136,0 -0.9139,-0.38885 -1.07229,-0.86409 -0.15844,-0.47527 -0.32802,0.66048 -0.37686,2.5239 -0.065,2.47416 0.20212,3.27639 0.98925,2.97426 0.67804,-0.26013 1.27352,0.47602 1.60473,1.98394 0.34381,1.56537 1.58041,3.03719 3.56247,4.24013 1.66976,1.01341 3.33288,2.32709 3.69584,2.91933 1.02109,1.66612 2.16952,1.28369 3.24707,-1.0813 z m 34.46653,-1.87183 c 0,-0.9731 -3.14738,-1.75386 -4.68759,-1.16283 -1.00032,0.38387 -1.02377,0.60016 -0.12669,1.16878 1.45577,0.92282 4.81433,0.91864 4.81433,-0.007 z m -15.1875,-16.84833 c 1.706,-0.97182 1.41251,-3.32648 -0.72461,-5.8136 -2.67757,-3.11611 -3.89358,-2.79067 -3.89358,1.04202 0,3.82207 0.70791,6.01404 1.73694,5.37807 0.40631,-0.25107 0.78932,0.58657 0.85115,1.86153 0.10823,2.23398 0.12604,2.24324 0.49202,0.25512 0.20866,-1.13472 0.90093,-2.36009 1.53808,-2.72305 z M 57.293642,242.22265 c -0.329862,-1.74842 -0.762666,-2.69506 -0.961796,-2.10367 -0.266395,0.79112 -0.660198,0.68209 -1.490315,-0.41262 -0.907859,-1.19726 -1.144721,-1.24611 -1.212501,-0.25014 -0.05735,0.84283 -0.310592,0.71113 -0.793487,-0.41261 -0.568934,-1.32399 -0.720702,-1.03832 -0.767228,1.44415 -0.03193,1.70204 0.335268,3.09465 0.815935,3.09465 0.480668,0 0.605602,-0.4642 0.277623,-1.03155 -0.327966,-0.56733 0.413403,0.0312 1.647479,1.32966 2.72519,2.86787 3.269591,2.50454 2.484278,-1.65797 z m -6.370081,-1.27059 c -0.263431,-0.65833 -0.458981,-0.46279 -0.498576,0.49857 -0.03581,0.86993 0.159193,1.35734 0.433432,1.08314 0.274224,-0.27416 0.303543,-0.98601 0.06513,-1.58171 z m -1.080403,-10.18715 c 0.330409,-0.86103 -0.233676,-1.52363 -1.76849,-2.07738 -1.23951,-0.4472 -3.669971,-1.58648 -5.401039,-2.53176 -1.731069,-0.94525 -3.866373,-1.53062 -4.745116,-1.3008 -1.337331,0.34969 -1.597718,-0.0187 -1.597718,-2.25573 0,-3.07383 -0.512194,-3.84219 -2.143778,-3.21608 -0.671554,0.25763 -1.197346,1.70568 -1.2529,3.45037 -0.05917,1.85706 -0.259407,2.3754 -0.523853,1.3559 l -0.428123,-1.65049 -0.632894,1.65049 c -0.508271,1.32551 -0.75123,0.95756 -1.233992,-1.86873 -0.438844,-2.56916 -0.863694,-3.30125 -1.573806,-2.71194 -1.392412,1.15562 -3.763981,-1.88005 -3.763981,-4.81797 0,-1.30088 -0.557036,-2.82754 -1.237856,-3.39254 -1.07931,-0.89575 -1.237856,-0.32114 -1.237856,4.48644 0,3.0326 0.326142,5.31223 0.724763,5.06586 0.398617,-0.2464 0.958234,0.71943 1.243586,2.14622 0.285359,1.42676 0.724435,2.38851 0.975727,2.1372 0.251297,-0.25138 1.345904,0.43212 2.432469,1.51868 2.19572,2.19572 3.344367,2.38411 6.717458,1.10163 1.777851,-0.67592 2.491105,-0.617 3.148365,0.26013 0.745867,0.99538 8.290345,3.66611 10.870632,3.84824 0.518793,0.0365 1.161572,-0.50238 1.428402,-1.1977 z m 3.191039,-7.65922 c -0.18739,-1.27686 -1.051476,-2.76543 -1.920171,-3.30792 -1.791929,-1.1191 -2.1323,7.7e-4 -0.501711,1.65067 0.592752,0.59978 1.323814,1.74037 1.62458,2.53466 0.814987,2.15226 1.182596,1.74777 0.797302,-0.87741 z m 89.519923,-7.72484 c -0.76796,-0.47466 -0.76053,-0.84413 0.0331,-1.63758 0.77786,-0.77788 1.02466,-0.78615 1.02466,-0.0344 0,0.54465 0.55702,0.99029 1.23784,0.99029 1.34254,0 1.43571,-0.93163 0.41265,-4.1262 -0.36341,-1.13469 -0.69776,-1.57697 -0.74298,-0.98282 -0.0452,0.59413 -0.42821,0.86642 -0.85106,0.60511 -1.15637,-0.71468 -3.35739,2.9039 -3.35739,5.51977 0,2.07689 0.15626,2.20146 1.61756,1.2889 1.15266,-0.71986 1.33251,-1.18635 0.62581,-1.6231 z m 5.85752,-3.96997 c 0.99694,0.0218 2.36538,1.19009 2.88627,2.46307 0.27853,0.68083 0.42713,-0.0187 0.33006,-1.55475 -0.15595,-2.46823 -0.46538,-2.81478 -2.66341,-2.98335 -2.44999,-0.18775 -2.48105,-0.14034 -2.09202,3.20523 0.31732,2.72879 0.4519,2.95011 0.68494,1.12656 0.15938,-1.24817 0.54389,-2.26373 0.85416,-2.25676 z m -18.77287,2.08512 c 0.52449,0.32419 1.19066,0.23423 1.48031,-0.19994 0.98586,-1.47747 5.88623,-3.49936 5.94655,-2.45353 0.0312,0.53255 0.45885,0.13288 0.95136,-0.88849 0.49252,-1.02125 1.21012,-1.8568 1.59463,-1.8568 0.38451,0 0.69912,-0.53409 0.69912,-1.18691 0,-1.348 4.91755,-7.04128 5.01422,-5.80522 0.0346,0.44159 0.54716,-0.49688 1.13915,-2.08546 0.59199,-1.58861 1.5241,-2.78484 2.07135,-2.65837 0.54728,0.1267 1.19204,-0.52336 1.43283,-1.44416 0.24079,-0.92076 0.80511,-1.67416 1.25399,-1.67416 1.43045,0 5.31183,-3.73254 4.9646,-4.77422 -0.47925,-1.43769 -1.70028,-1.24676 -6.59219,1.03077 -2.38289,1.10939 -4.33252,1.64973 -4.33252,1.20075 0,-0.49417 -0.70786,-0.43748 -1.79381,0.14378 -2.44876,1.31051 -14.24953,0.96347 -17.80904,-0.52381 -3.29149,-1.37525 -4.62944,-1.53187 -3.96986,-0.4646 0.25107,0.40632 -0.0983,0.95167 -0.77655,1.21195 -0.8517,0.32682 -1.23313,-0.0605 -1.23313,-1.25244 0,-1.3237 -0.25014,-1.51793 -1.07447,-0.8339 -0.59099,0.49047 -1.86653,0.68466 -2.83462,0.43149 -2.38138,-0.62275 -4.95485,1.91436 -5.33548,5.26009 -0.16693,1.46721 -1.03319,3.20122 -1.92504,3.85336 -1.60758,1.17553 -1.60678,1.20232 0.0932,3.10904 0.94313,1.05781 1.75047,2.666 1.79407,3.57375 0.11844,2.4659 1.99427,6.75716 2.43494,5.57038 0.60692,-1.63456 2.25504,-1.20201 3.14442,0.82522 0.69355,1.58081 1.44826,1.85678 5.07782,1.85678 2.34478,0 4.53874,0.2754 4.8755,0.61178 0.33676,0.33646 1.0944,0.21179 1.68364,-0.27727 0.58922,-0.48899 1.50047,-0.62389 2.02499,-0.29975 z M 16.246396,207.89104 c -0.228936,-0.56734 -0.416245,-0.10319 -0.416245,1.03156 0,1.13469 0.187328,1.59889 0.416245,1.03154 0.228934,-0.56738 0.228934,-1.49575 0,-2.0631 z m 155.767224,-10.4105 c 0.24266,-0.39268 1.38051,-0.61086 2.52848,-0.48484 1.14798,0.12604 1.8778,-0.10978 1.62186,-0.5239 -0.25607,-0.41415 -0.072,-0.75304 0.40856,-0.75304 1.43908,0 1.0478,-5.53333 -0.43142,-6.10095 -1.92959,-0.74046 -10.4896,-0.58407 -11.74924,0.21458 -0.67788,0.4298 -0.98927,1.8797 -0.82527,3.84243 0.23393,2.80097 0.53759,3.18835 2.72425,3.47711 1.35343,0.17872 2.62223,0.48643 2.81954,0.68374 0.61592,0.61592 2.44109,0.39258 2.90324,-0.35519 z m -132.381876,-4.6501 c -1.532896,-1.84701 -0.689651,-2.18374 1.988798,-0.79416 2.882323,1.49538 2.962628,1.49398 2.962628,-0.0514 0,-0.69204 -0.928391,-1.61124 -2.063094,-2.04266 -1.134701,-0.43139 -2.092415,-1.25777 -2.128249,-1.83635 -0.04828,-0.77965 -0.180964,-0.76076 -0.512512,0.073 -0.351312,0.88339 -0.584614,0.90285 -1.086581,0.0907 -0.351569,-0.56885 -3.370313,-1.92184 -6.708317,-3.00666 -7.921412,-2.57443 -15.464043,-2.66715 -16.257261,-0.19993 -0.206135,0.64118 -0.710612,1.38582 -1.121068,1.65476 -0.410457,0.26886 1.349808,0.39116 3.911708,0.27166 3.888645,-0.18151 5.327221,0.17717 8.70978,2.17161 2.228488,1.31395 4.063602,2.12012 4.078034,1.7915 0.01435,-0.32865 0.47864,-0.0405 1.03155,0.64033 0.552916,0.68083 1.933694,1.36732 3.068395,1.52557 1.134702,0.15814 2.617035,0.59459 3.294079,0.96963 1.687214,0.93471 2.114948,0.28852 0.83211,-1.25734 z m 6.340391,-0.56733 c -0.263431,-0.65834 -0.458981,-0.46278 -0.498576,0.49857 -0.0358,0.86995 0.159194,1.35735 0.433432,1.08313 0.274224,-0.27415 0.303543,-0.98602 0.06513,-1.5817 z m 34.096246,-21.80238 c 0,-0.1784 -0.55703,-0.32431 -1.237853,-0.32431 -0.680821,0 -1.237857,0.35972 -1.237857,0.79933 0,0.43963 0.557036,0.5856 1.237857,0.32433 0.680823,-0.26138 1.237853,-0.62094 1.237853,-0.79935 z m 72.620929,-4.86313 c 0,-0.68767 -0.73354,-1.23783 -1.65046,-1.23783 -1.64409,0 -2.14654,0.87931 -1.10033,1.92554 1.0051,1.00508 2.75079,0.56863 2.75079,-0.68771 z m 58.937,-1.73875 c 1.2888,-0.49455 1.88559,-2.09762 0.68643,-1.8438 -0.34042,0.072 -1.28481,-0.15937 -2.09869,-0.51456 -1.79982,-0.78522 -2.60689,-0.12854 -1.94904,1.58582 0.52749,1.37457 1.31859,1.55641 3.3613,0.77254 z m -62.23794,-2.8755 c 0.80086,-0.56639 0.91606,-1.0091 0.32624,-1.25403 -0.50137,-0.20835 -0.74495,-1.25048 -0.54121,-2.31616 0.20368,-1.06565 0.001,-2.16564 -0.44966,-2.44439 -0.48307,-0.29848 -0.94135,1.0182 -1.1152,3.20422 -0.31394,3.94733 -0.16345,4.18474 1.77983,2.81036 z m 60.28719,-5.2886 c 0.66297,1.64694 0.66454,1.64694 0.72239,-0.007 0.0319,-0.91205 -0.68473,-2.12211 -1.59248,-2.68902 -1.50507,-0.93994 -1.65049,-0.82416 -1.65049,1.31445 0,2.99124 1.13935,4.21899 1.54703,1.667 0.29287,-1.83431 0.34373,-1.84913 0.97355,-0.28476 z m -23.84371,-2.06309 c 0.50367,0 0.77401,-2.23169 0.67474,-5.57036 -0.2489,-8.37298 -0.47245,-7.92494 3.67032,-7.35709 2.39587,0.32837 3.76013,0.17873 3.9646,-0.43466 0.38096,-1.14284 1.78009,-1.45568 9.71254,-2.17149 8.93134,-0.80599 12.37857,-0.39865 12.37857,1.46269 0,0.93063 -0.5535,1.46503 -1.44417,1.39435 -0.87846,-0.0699 -1.447,0.46461 -1.45137,1.3641 -0.002,0.81331 -0.56101,1.86455 -1.23788,2.33608 -0.89103,0.62075 -0.21551,0.71481 2.44815,0.34087 4.45245,-0.62507 7.94901,-2.26287 7.66824,-3.59182 -0.27572,-1.30499 2.00649,-1.25652 2.59367,0.055 0.25389,0.56738 0.26418,-1.38225 0.0218,-4.33248 -0.24172,-2.95022 -0.57574,-7.59217 -0.74246,-10.31547 -0.84324,-7.9431 -3.35032,-16.20047 -6.12519,-24.47548 -3.71915,-13.328952 -12.40432,-25.558133 -23.66604,-35.228938 -3.3693,-2.874603 -9.98881,-6.983053 -13.55059,-8.41025 -1.13471,-0.454657 -2.80583,-1.1705 -3.71358,-1.590726 -17.26836,-7.994048 -33.26117,-11.240499 -51.88829,-10.533045 -13.09992,0.497512 -21.38365,2.322382 -36.630759,8.06956 -4.872455,1.836596 -9.230368,3.450403 -9.684249,3.586235 -4.032677,1.2069 -10.728168,4.452446 -14.029036,6.800405 -1.361645,0.968546 -3.226424,1.987868 -4.14395,2.265179 -0.91753,0.27728 -2.867153,1.599209 -4.332496,2.937571 -1.465349,1.338401 -2.664262,2.249563 -2.664262,2.024828 0,-0.224878 -0.928395,0.593111 -2.063096,1.817486 -1.134701,1.224361 -2.063093,2.543234 -2.063093,2.930868 0,0.387598 -0.377346,0.704712 -0.838548,0.704712 -0.461201,0 -2.225147,1.506374 -3.919879,3.3475 -1.694732,1.841118 -4.456588,4.809325 -6.137456,6.595961 -3.744846,3.980501 -4.841381,8.343998 -2.693304,10.717591 1.810672,2.000753 3.686336,0.814305 3.686336,-2.331767 0,-1.154785 0.241818,-1.85781 0.537331,-1.562289 0.295526,0.295697 1.013251,-0.106591 1.594917,-0.893991 1.487062,-2.012582 3.649681,-0.04393 2.300821,2.094284 -0.6437,1.020467 -0.638511,1.835287 0.01871,2.911383 0.724973,1.187304 0.615726,1.662863 -0.53174,2.314763 -1.410183,0.80116 -2.078312,4.86464 -0.799871,4.86464 0.354372,0 1.077636,-1.14799 1.607259,-2.55112 0.570822,-1.51227 1.334325,-2.32159 1.874965,-1.98747 0.501602,0.31005 0.766976,0.99383 0.589714,1.51959 -0.177285,0.52575 0.267329,1.3951 0.987982,1.93192 1.049407,0.78166 1.104903,1.18422 0.278746,2.02183 -1.715882,1.73966 -1.155052,2.73378 0.630597,1.11779 0.914173,-0.82732 1.473991,-2.09703 1.244021,-2.82157 -0.244718,-0.771 0.296617,-1.76371 1.305245,-2.39362 1.461514,-0.91272 1.957449,-0.86442 3.264045,0.31807 1.650139,1.49334 4.077872,1.10925 4.077872,-0.64521 0,-0.58623 -0.928394,-2.06711 -2.063096,-3.29083 -2.090093,-2.254073 -2.982349,-8.073641 -1.237857,-8.073641 0.453883,0 0.825241,0.557028 0.825241,1.237836 0,2.096661 1.245058,1.379604 3.031171,-1.745697 1.028089,-1.79896 1.93099,-2.618097 2.273999,-2.063107 0.312896,0.506273 0.175631,0.920481 -0.305038,0.920481 -0.480668,0 -0.873944,0.371352 -0.873944,0.825227 0,1.069228 2.590183,1.054636 5.444704,-0.03122 1.710966,-0.650507 2.020917,-1.086186 1.291581,-1.815503 -1.319416,-1.319417 -1.202191,-2.280004 0.278246,-2.280004 0.680821,0 1.237856,0.357023 1.237856,0.793403 0,0.436425 1.578265,1.204577 3.507259,1.707015 6.848918,1.78404 10.462623,4.101466 6.395592,4.101466 -0.907763,0 -1.650475,0.535129 -1.650475,1.189152 0,1.523541 1.377864,2.395294 2.054774,1.300037 0.819007,-1.325179 1.841468,-0.981938 2.300185,0.772206 0.231676,0.886016 -0.0033,1.818032 -0.522683,2.071202 -0.519168,0.253257 0.177098,0.297548 1.547225,0.09827 2.844832,-0.413298 5.844742,1.502888 6.355014,4.059257 0.181184,0.90776 0.781933,1.5542 1.334951,1.43653 0.553029,-0.11765 1.21976,0.34436 1.481639,1.0268 0.261856,0.68242 0.808564,1.0353 1.214873,0.78419 0.406331,-0.25109 0.738782,0.12223 0.738782,0.82999 0,0.70758 0.742714,2.02926 1.650465,2.93702 0.907763,0.90775 1.650488,2.37128 1.650488,3.25226 0,1.79902 1.604137,3.22567 1.733362,1.54156 0.04568,-0.59414 0.409628,0.30505 0.80897,1.99813 0.698861,2.96304 3.274544,6.41187 4.788564,6.41187 0.40094,0 0.91497,0.71122 1.14231,1.58055 0.22799,0.87183 1.28875,1.70442 2.36565,1.85678 2.47962,0.35081 2.59983,2.74307 0.13953,2.77672 -2.26639,0.0312 -2.96447,0.71337 -3.14071,3.07027 -0.0812,1.08532 -0.68518,1.86074 -1.45429,1.86687 -2.27091,0.0187 -2.39331,0.9348 -0.56059,4.19782 1.39709,2.48737 1.58087,3.47954 0.85869,4.63591 -0.71738,1.1487 -0.66525,1.47123 0.23776,1.47123 1.99705,0 2.24432,2.55446 0.51771,5.34819 -0.91316,1.47751 -1.66029,3.26987 -1.66029,3.98307 0,1.1714 0.35379,1.17612 3.66246,0.0486 2.01434,-0.68633 4.10227,-1.77789 4.63985,-2.42562 0.53757,-0.64772 1.43474,-1.1777 1.99372,-1.1777 1.21239,0 4.95337,-3.3384 5.61244,-5.00848 0.34971,-0.88611 0.48226,-0.82039 0.53114,0.26326 0.049,1.08297 0.77535,1.44415 2.90479,1.44415 1.56178,0 3.04919,-0.33904 3.30528,-0.75342 0.25607,-0.4144 2.04195,-0.99915 3.96856,-1.29946 1.92665,-0.30035 5.04098,-1.11038 6.92077,-1.80022 2.60073,-0.95437 5.60939,-1.15578 12.58482,-0.84235 5.24306,0.23548 9.36978,0.0836 9.64077,-0.35472 0.73611,-1.19103 3.84134,-0.46681 6.68715,1.55956 2.93595,2.0906 4.08655,2.29107 4.6403,0.80857 0.25763,-0.68954 0.55397,-0.55274 0.89401,0.41266 0.27977,0.79427 0.74768,2.09403 1.03975,2.88831 0.29193,0.79429 0.44424,2.51799 0.33816,3.83043 -0.15065,1.86333 0.0889,2.27812 1.09299,1.89283 0.70724,-0.27135 1.50539,-0.13816 1.77363,0.29569 0.26823,0.43404 1.55801,0.78917 2.86605,0.78917 1.30808,0 2.61159,0.37743 2.89665,0.8387 0.28508,0.46128 0.86406,0.62504 1.28657,0.36393 0.42253,-0.26106 0.7682,-0.055 0.7682,0.45808 0,0.53932 0.54715,0.38576 1.29683,-0.3639 0.71322,-0.71324 1.67497,-1.29681 2.13717,-1.29681 z m 31.22598,-12.37856 c 0,-0.45388 0.39329,-0.82523 0.87396,-0.82523 0.48067,0 0.64444,0.37135 0.36393,0.82523 -0.28041,0.45387 -0.67382,0.82526 -0.87395,0.82526 -0.20024,0 -0.36394,-0.37139 -0.36394,-0.82526 z m -111.38318,-9.04538 c -0.66768,-0.42224 -1.02281,-0.95888 -0.7892,-1.1925 0.63941,-0.63939 4.06625,0.41955 4.06625,1.2565 0,0.94656 -1.73263,0.91272 -3.27705,-0.0639 z m 4.92753,-4.48276 c 0,-0.17841 0.55703,-0.53806 1.23786,-0.79934 0.68082,-0.26138 1.23786,-0.11542 1.23786,0.32435 0,0.43962 -0.55704,0.79934 -1.23786,0.79934 -0.68083,0 -1.23786,-0.14598 -1.23786,-0.32435 z M 46.268179,99.398161 c -0.888433,-1.000802 -0.942421,-1.442474 -0.20629,-1.687854 0.548352,-0.182762 1.008818,-1.322616 1.023253,-2.532977 0.02401,-2.005801 0.123299,-2.072769 1.122527,-0.756452 1.461761,1.925644 2.509152,1.820093 4.094631,-0.412619 1.29291,-1.820706 1.31567,-1.792639 1.171029,1.444173 -0.218176,4.882638 -4.359944,7.150788 -7.205134,3.945729 z M 206.07338,152.1875 c -0.20773,-0.79429 -0.3774,-0.14441 -0.3774,1.44416 0,1.58857 0.16967,2.23845 0.3774,1.44416 0.20742,-0.79429 0.20742,-2.09404 0,-2.88832 z m -1.33076,-4.43564 c 0.41904,-0.0567 1.13326,-0.14972 1.58714,-0.20617 1.65811,-0.20742 1.18526,-1.76108 -0.61367,-2.01666 -1.25212,-0.17778 -2.65464,0.61632 -4.33247,2.45332 -3.2255,3.5315 -3.19051,4.74273 0.058,2.00928 1.39649,-1.17507 2.8819,-2.18288 3.30098,-2.23962 z m -63.83589,-2.05168 c -0.22083,-0.22083 -1.46628,-0.12105 -2.768,0.22176 l -2.36681,0.62296 2.47572,0.47536 c 2.23445,0.42906 3.68704,-0.29194 2.65909,-1.32006 z m 16.35956,0.99109 c 1.49569,-1.09365 1.40973,-1.19779 -1.42823,-1.7302 -4.35462,-0.81694 -10.28405,0.53796 -9.30278,2.12573 0.74548,1.20618 8.9543,0.90363 10.73101,-0.39553 z m -59.042669,-2.1372 c 0,-0.45392 -0.393283,-0.82526 -0.873955,-0.82526 -0.480671,0 -0.644415,0.37134 -0.363902,0.82526 0.280513,0.45388 0.673786,0.82523 0.873944,0.82523 0.200137,0 0.363913,-0.37135 0.363913,-0.82523 z m 113.882789,-2.47571 c 0,-0.45392 -0.37135,-0.82526 -0.82522,-0.82526 -0.45388,0 -0.82523,0.37134 -0.82523,0.82526 0,0.45387 0.37135,0.82522 0.82523,0.82522 0.45387,0 0.82522,-0.37135 0.82522,-0.82522 z M 95.49454,111.76656 c -0.209218,-0.80293 -0.394171,-0.34581 -0.410998,1.01585 -0.01676,1.36164 0.154367,2.01856 0.380423,1.45986 0.226034,-0.55871 0.239826,-1.67278 0.03056,-2.47571 z m -38.721929,-3.6777 c -0.510054,-1.53017 -2.286591,-1.78397 -2.286591,-0.32664 0,0.71864 0.587984,1.30661 1.306625,1.30661 0.718647,0 1.159631,-0.44099 0.979966,-0.97997 z m 9.830462,-1.65049 c -0.263431,-0.65829 -0.458981,-0.46276 -0.498573,0.49859 -0.0358,0.86994 0.159194,1.35736 0.433429,1.08314 0.274224,-0.27417 0.303543,-0.98598 0.06513,-1.58173 z M 54.48602,104.94263 c 0,-0.45388 -0.649873,-0.81955 -1.444166,-0.8126 -1.234183,0.009 -1.264181,0.12919 -0.206323,0.8126 1.557399,1.00647 1.650477,1.00647 1.650477,0 z m 21.868795,0 c 0.280523,-0.45388 0.116741,-0.82523 -0.363914,-0.82523 -0.480667,0 -0.873943,0.37135 -0.873943,0.82523 0,0.45392 0.163748,0.82526 0.363913,0.82526 0.200147,0 0.593429,-0.37134 0.873944,-0.82526 z M 66.62174,98.959688 c -0.196685,-1.021255 -0.357632,-0.185577 -0.357632,1.856782 0,2.04244 0.160942,2.87799 0.357632,1.85677 0.196716,-1.02121 0.196716,-2.692319 0,-3.713552 z m -3.470727,-0.618934 c 0.280525,-0.453875 0.116742,-0.825249 -0.363912,-0.825249 -0.480668,0 -0.873944,0.371374 -0.873944,0.825249 0,0.453876 0.16375,0.825228 0.363915,0.825228 0.200147,0 0.593428,-0.371352 0.873941,-0.825228 z m -29.557441,-4.28093 c -0.263432,-0.658295 -0.45898,-0.462771 -0.498576,0.498572 -0.0358,0.869946 0.159193,1.357365 0.433433,1.08314 0.274222,-0.274159 0.303542,-0.98598 0.06512,-1.581712 z m 31.397036,-1.169071 c -0.274222,-0.274159 -0.985993,-0.303485 -1.581708,-0.06518 -0.658317,0.263555 -0.462776,0.45897 0.498586,0.498572 0.869931,0.03582 1.357343,-0.159373 1.083122,-0.433456 z m 6.601902,-2.475714 c -0.274224,-0.27416 -0.985993,-0.303486 -1.581708,-0.06518 -0.658317,0.263555 -0.462777,0.45897 0.498582,0.498572 0.869933,0.03582 1.357342,-0.159373 1.083126,-0.433444 z"
       id="path21"
       inkscape:connector-curvature="0"
       sodipodi:nodetypes="cccscscsccccccccscccccccscccccssccsccccccccscccccccscccccsccccscccccsscscscsccccscsccscscssccccscccccccccccccccccccccscccsssscsccscccccccccscccscccccscccccscsccccscscccsccccccccccccccccccccccscssscssccccccccscccccscccccsssccccccccccsccscccccsccccsccccccccsscccccccccccscccccccccccccscccccscscsccccccccccccccccsscscsccccccccccccccssccccsccsccccsccccccccsccccsscscscsccccsccccsccccccccccccccccccccssscssscscccccccccsccccsccccccccsccccccccccccssccccsssssccscccccscccccccccscssccssccsscssccccccccscsccscccccccscsccsccsccccccccccccsscscccsscssccsccscssscccccccccscccccccccccccccccccsscsssssssccccccssccccccccccccsssccscccssscccccccccccccccc" />
  </g>
</svg>
